<?xml version="1.0" standalone="no"?>
<!DOCTYPE svg PUBLIC "-//W3C//DTD SVG 20010904//EN"
 "http://www.w3.org/TR/2001/REC-SVG-20010904/DTD/svg10.dtd">
<svg version="1.0" xmlns="http://www.w3.org/2000/svg"
 width="16.000000pt" height="16.000000pt" viewBox="0 0 16.000000 16.000000"
 preserveAspectRatio="xMidYMid meet">

<g transform="translate(0.000000,16.000000) scale(0.100000,-0.100000)"
fill="#000000" stroke="none">
<path d="M24 146 c-3 -8 -2 -21 2 -27 5 -9 10 -6 15 9 6 16 17 22 38 22 33 0
49 -15 26 -24 -23 -8 -18 -26 8 -27 21 -1 21 -1 -3 -8 -15 -5 -24 -14 -22 -23
1 -9 -5 -18 -15 -20 -15 -3 -15 -4 1 -21 25 -25 46 -21 46 8 0 14 7 37 16 50
8 13 14 34 12 47 -3 21 -9 23 -61 26 -44 2 -59 -1 -63 -12z"/>
<path d="M58 113 c7 -3 16 -2 19 1 4 3 -2 6 -13 5 -11 0 -14 -3 -6 -6z"/>
</g>
</svg>
